<svg width="12" height="15" viewBox="0 0 12 15" fill="none" xmlns="http://www.w3.org/2000/svg">
<path d="M11.1379 7.50636C11.1399 8.41298 10.9634 9.30733 10.6227 10.1166C10.2189 11.0863 9.59798 11.9019 8.82963 12.4721C8.06128 13.0423 7.17581 13.3446 6.2724 13.345C5.51689 13.3473 4.7716 13.1355 4.09723 12.7268L0.834473 14.0319L1.92206 10.1166C1.58143 9.30733 1.40492 8.41298 1.40689 7.50636C1.40724 6.42227 1.6591 5.35971 2.13426 4.43769C2.60943 3.51567 3.28913 2.7706 4.09723 2.28595C4.7716 1.8772 5.51689 1.66538 6.2724 1.66774H6.55861C7.75172 1.74673 8.87863 2.35104 9.72356 3.36497C10.5685 4.37889 11.0721 5.73118 11.1379 7.16291V7.50636Z" stroke="black" stroke-width="1.37379" stroke-linecap="round" stroke-linejoin="round"/>
</svg>
