<svg width="12" height="15" viewBox="0 0 12 15" fill="none" xmlns="http://www.w3.org/2000/svg">
<path d="M11.1379 6.93971C11.1399 7.84633 10.9634 8.74068 10.6227 9.54992C10.2189 10.5196 9.59798 11.3353 8.82963 11.9055C8.06128 12.4757 7.17581 12.7779 6.2724 12.7783C5.51689 12.7807 4.7716 12.5689 4.09723 12.1601L0.834473 13.4652L1.92206 9.54992C1.58143 8.74068 1.40492 7.84633 1.40689 6.93971C1.40724 5.85562 1.6591 4.79306 2.13426 3.87104C2.60943 2.94902 3.28913 2.20395 4.09723 1.7193C4.7716 1.31055 5.51689 1.09873 6.2724 1.10109H6.55861C7.75172 1.18008 8.87863 1.78439 9.72356 2.79832C10.5685 3.81224 11.0721 5.16453 11.1379 6.59626V6.93971Z" stroke="black" stroke-width="1.37379" stroke-linecap="round" stroke-linejoin="round"/>
</svg>
