<svg width="13" height="15" viewBox="0 0 13 15" fill="none" xmlns="http://www.w3.org/2000/svg">
<path d="M11.3557 6.98793C11.3577 7.89454 11.1811 8.78889 10.8405 9.59814C10.4366 10.5679 9.81576 11.3835 9.0474 11.9537C8.27905 12.5239 7.39358 12.8261 6.49018 12.8265C5.73467 12.8289 4.98937 12.6171 4.315 12.2083L1.05225 13.5134L2.13983 9.59814C1.79921 8.78889 1.62269 7.89454 1.62466 6.98793C1.62501 5.90384 1.87687 4.84128 2.35204 3.91926C2.8272 2.99723 3.5069 2.25217 4.315 1.76752C4.98937 1.35877 5.73467 1.14695 6.49018 1.14931H6.77638C7.96949 1.2283 9.0964 1.83261 9.94134 2.84654C10.7863 3.86046 11.2899 5.21275 11.3557 6.64448V6.98793Z" stroke="black" stroke-width="1.37379" stroke-linecap="round" stroke-linejoin="round"/>
</svg>
