<svg width="12" height="12" viewBox="0 0 12 12" fill="none" xmlns="http://www.w3.org/2000/svg">
<path d="M8.14274 1.46747C8.27232 1.33789 8.42615 1.2351 8.59546 1.16497C8.76476 1.09484 8.94622 1.05875 9.12948 1.05875C9.31273 1.05875 9.49419 1.09484 9.6635 1.16497C9.8328 1.2351 9.98664 1.33789 10.1162 1.46747C10.2458 1.59705 10.3486 1.75088 10.4187 1.92019C10.4888 2.08949 10.5249 2.27095 10.5249 2.45421C10.5249 2.63746 10.4888 2.81892 10.4187 2.98823C10.3486 3.15753 10.2458 3.31137 10.1162 3.44095L3.45572 10.1014L0.742188 10.8415L1.48224 8.12796L8.14274 1.46747Z" stroke="black" stroke-width="0.98674" stroke-linecap="round" stroke-linejoin="round"/>
</svg>
