<svg width="13" height="15" viewBox="0 0 13 15" fill="none" xmlns="http://www.w3.org/2000/svg">
<path d="M11.3791 6.82216C11.3811 7.72877 11.2046 8.62312 10.864 9.43237C10.4601 10.4021 9.83919 11.2177 9.07084 11.7879C8.30249 12.3581 7.41702 12.6604 6.51361 12.6608C5.7581 12.6631 5.01281 12.4513 4.33844 12.0426L1.07568 13.3477L2.16327 9.43237C1.82264 8.62312 1.64613 7.72877 1.6481 6.82216C1.64845 5.73807 1.90031 4.67551 2.37547 3.75348C2.85064 2.83146 3.53034 2.0864 4.33844 1.60175C5.01281 1.193 5.7581 0.981176 6.51361 0.98354H6.79982C7.99293 1.06253 9.11984 1.66684 9.96478 2.68076C10.8097 3.69469 11.3133 5.04698 11.3791 6.47871V6.82216Z" stroke="black" stroke-width="1.37379" stroke-linecap="round" stroke-linejoin="round"/>
</svg>
