<svg width="12" height="14" viewBox="0 0 12 14" fill="none" xmlns="http://www.w3.org/2000/svg">
<path d="M11.1379 6.65077C11.1399 7.55738 10.9634 8.45174 10.6227 9.26098C10.2189 10.2307 9.59798 11.0463 8.82963 11.6165C8.06128 12.1867 7.17581 12.489 6.2724 12.4894C5.51689 12.4918 4.7716 12.2799 4.09723 11.8712L0.834473 13.1763L1.92206 9.26098C1.58143 8.45174 1.40492 7.55738 1.40689 6.65077C1.40724 5.56668 1.6591 4.50412 2.13426 3.5821C2.60943 2.66008 3.28913 1.91501 4.09723 1.43036C4.7716 1.02161 5.51689 0.80979 6.2724 0.812153H6.55861C7.75172 0.891141 8.87863 1.49545 9.72356 2.50938C10.5685 3.5233 11.0721 4.87559 11.1379 6.30732V6.65077Z" stroke="black" stroke-width="1.37379" stroke-linecap="round" stroke-linejoin="round"/>
</svg>
