<svg width="13" height="14" viewBox="0 0 13 14" fill="none" xmlns="http://www.w3.org/2000/svg">
<path d="M11.3791 6.63113C11.3811 7.53775 11.2046 8.4321 10.864 9.24134C10.4601 10.2111 9.83919 11.0267 9.07084 11.5969C8.30249 12.1671 7.41702 12.4693 6.51361 12.4698C5.7581 12.4721 5.01281 12.2603 4.33844 11.8515L1.07568 13.1566L2.16327 9.24134C1.82264 8.4321 1.64613 7.53775 1.6481 6.63113C1.64845 5.54705 1.90031 4.48448 2.37547 3.56246C2.85064 2.64044 3.53034 1.89537 4.33844 1.41072C5.01281 1.00197 5.7581 0.790152 6.51361 0.792515H6.79982C7.99293 0.871503 9.11984 1.47581 9.96478 2.48974C10.8097 3.50367 11.3133 4.85596 11.3791 6.28769V6.63113Z" stroke="black" stroke-width="1.37379" stroke-linecap="round" stroke-linejoin="round"/>
</svg>
