<svg width="13" height="15" viewBox="0 0 13 15" fill="none" xmlns="http://www.w3.org/2000/svg">
<path d="M11.3557 7.13399C11.3577 8.0406 11.1811 8.93495 10.8405 9.74419C10.4366 10.7139 9.81576 11.5296 9.0474 12.0998C8.27905 12.67 7.39358 12.9722 6.49018 12.9726C5.73467 12.975 4.98937 12.7632 4.315 12.3544L1.05225 13.6595L2.13983 9.74419C1.79921 8.93495 1.62269 8.0406 1.62466 7.13399C1.62501 6.0499 1.87687 4.98733 2.35204 4.06531C2.8272 3.14329 3.5069 2.39823 4.315 1.91358C4.98937 1.50482 5.73467 1.293 6.49018 1.29537H6.77638C7.96949 1.37436 9.0964 1.97867 9.94134 2.99259C10.7863 4.00652 11.2899 5.35881 11.3557 6.79054V7.13399Z" stroke="black" stroke-width="1.37379" stroke-linecap="round" stroke-linejoin="round"/>
</svg>
