<svg width="13" height="15" viewBox="0 0 13 15" fill="none" xmlns="http://www.w3.org/2000/svg">
<path d="M11.3791 7.0132C11.3811 7.91981 11.2046 8.81416 10.864 9.62341C10.4601 10.5931 9.83919 11.4088 9.07084 11.979C8.30249 12.5492 7.41702 12.8514 6.51361 12.8518C5.7581 12.8542 5.01281 12.6424 4.33844 12.2336L1.07568 13.5387L2.16327 9.62341C1.82264 8.81416 1.64613 7.91981 1.6481 7.0132C1.64845 5.92911 1.90031 4.86655 2.37547 3.94452C2.85064 3.0225 3.53034 2.27744 4.33844 1.79279C5.01281 1.38404 5.7581 1.17222 6.51361 1.17458H6.79982C7.99293 1.25357 9.11984 1.85788 9.96478 2.8718C10.8097 3.88573 11.3133 5.23802 11.3791 6.66975V7.0132Z" stroke="black" stroke-width="1.37379" stroke-linecap="round" stroke-linejoin="round"/>
</svg>
