<svg width="12" height="15" viewBox="0 0 12 15" fill="none" xmlns="http://www.w3.org/2000/svg">
<path d="M11.1379 6.79518C11.1399 7.70179 10.9634 8.59614 10.6227 9.40539C10.2189 10.3751 9.59798 11.1907 8.82963 11.7609C8.06128 12.3311 7.17581 12.6334 6.2724 12.6338C5.51689 12.6362 4.7716 12.4243 4.09723 12.0156L0.834473 13.3207L1.92206 9.40539C1.58143 8.59614 1.40492 7.70179 1.40689 6.79518C1.40724 5.71109 1.6591 4.64853 2.13426 3.72651C2.60943 2.80448 3.28913 2.05942 4.09723 1.57477C4.7716 1.16602 5.51689 0.954199 6.2724 0.956563H6.55861C7.75172 1.03555 8.87863 1.63986 9.72356 2.65379C10.5685 3.66771 11.0721 5.02 11.1379 6.45173V6.79518Z" stroke="black" stroke-width="1.37379" stroke-linecap="round" stroke-linejoin="round"/>
</svg>
