<svg width="13" height="15" viewBox="0 0 13 15" fill="none" xmlns="http://www.w3.org/2000/svg">
<path d="M11.3557 7.42604C11.3577 8.33265 11.1811 9.227 10.8405 10.0362C10.4366 11.006 9.81576 11.8216 9.0474 12.3918C8.27905 12.962 7.39358 13.2642 6.49018 13.2647C5.73467 13.267 4.98937 13.0552 4.315 12.6465L1.05225 13.9516L2.13983 10.0362C1.79921 9.227 1.62269 8.33265 1.62466 7.42604C1.62501 6.34195 1.87687 5.27939 2.35204 4.35737C2.8272 3.43534 3.5069 2.69028 4.315 2.20563C4.98937 1.79688 5.73467 1.58506 6.49018 1.58742H6.77638C7.96949 1.66641 9.0964 2.27072 9.94134 3.28465C10.7863 4.29857 11.2899 5.65086 11.3557 7.08259V7.42604Z" stroke="black" stroke-width="1.37379" stroke-linecap="round" stroke-linejoin="round"/>
</svg>
