<svg width="13" height="15" viewBox="0 0 13 15" fill="none" xmlns="http://www.w3.org/2000/svg">
<path d="M11.3791 7.20436C11.3811 8.11097 11.2046 9.00532 10.864 9.81457C10.4601 10.7843 9.83919 11.5999 9.07084 12.1701C8.30249 12.7403 7.41702 13.0426 6.51361 13.043C5.7581 13.0453 5.01281 12.8335 4.33844 12.4248L1.07568 13.7299L2.16327 9.81457C1.82264 9.00532 1.64613 8.11097 1.6481 7.20436C1.64845 6.12027 1.90031 5.05771 2.37547 4.13569C2.85064 3.21366 3.53034 2.4686 4.33844 1.98395C5.01281 1.5752 5.7581 1.36338 6.51361 1.36574H6.79982C7.99293 1.44473 9.11984 2.04904 9.96478 3.06297C10.8097 4.07689 11.3133 5.42918 11.3791 6.86091V7.20436Z" stroke="black" stroke-width="1.37379" stroke-linecap="round" stroke-linejoin="round"/>
</svg>
