<svg width="13" height="15" viewBox="0 0 13 15" fill="none" xmlns="http://www.w3.org/2000/svg">
<path d="M11.3557 7.28004C11.3577 8.18666 11.1811 9.08101 10.8405 9.89025C10.4366 10.86 9.81576 11.6756 9.0474 12.2458C8.27905 12.816 7.39358 13.1182 6.49018 13.1187C5.73467 13.121 4.98937 12.9092 4.315 12.5005L1.05225 13.8056L2.13983 9.89025C1.79921 9.08101 1.62269 8.18666 1.62466 7.28004C1.62501 6.19596 1.87687 5.13339 2.35204 4.21137C2.8272 3.28935 3.5069 2.54428 4.315 2.05963C4.98937 1.65088 5.73467 1.43906 6.49018 1.44143H6.77638C7.96949 1.52041 9.0964 2.12472 9.94134 3.13865C10.7863 4.15258 11.2899 5.50487 11.3557 6.9366V7.28004Z" stroke="black" stroke-width="1.37379" stroke-linecap="round" stroke-linejoin="round"/>
</svg>
